<?xml version="1.0" encoding="iso-8859-1"?>
<!-- Generator: Adobe Illustrator 18.0.0, SVG Export Plug-In . SVG Version: 6.00 Build 0)  -->
<!DOCTYPE svg PUBLIC "-//W3C//DTD SVG 1.1//EN" "http://www.w3.org/Graphics/SVG/1.1/DTD/svg11.dtd">
<svg xmlns="http://www.w3.org/2000/svg" xmlns:xlink="http://www.w3.org/1999/xlink" version="1.1" id="Capa_1" x="0px" y="0px" viewBox="0 0 461.402 461.402" style="enable-background:new 0 0 461.402 461.402;" xml:space="preserve" width="512px" height="512px">
<g id="XMLID_221_">
	<circle id="XMLID_337_" cx="400.165" cy="69.865" r="36.258" fill="#FFFFFF"/>
	<path id="XMLID_440_" d="M453.143,236.339l-49.297-28.26l-4.119-62.34l17.116,51.45l8.95-47.326   c2.514-13.291-6.223-26.104-19.515-28.618c-46.826-8.856-43.647-8.315-45.552-8.467c-7.592-1.393-15.061,5.127-21.575,9.8   c-14.196,10.183-55.625,43.177-55.625,43.177c-5.92,4.595-7.972,12.619-4.983,19.492l28.625,65.834   c1.206,2.773,3.089,5.039,5.368,6.7l4.218,77.215l-24.442,93.957c-2.741,10.536,3.578,21.299,14.114,24.04   c1.665,0.433,3.334,0.64,4.977,0.64c8.759-0.001,16.756-5.883,19.064-14.755l25.215-96.928c0.512-1.969,0.717-4.006,0.606-6.037   l-3.935-72.045l10.254,1.939l24.263,72.418l12.068,98.097c1.229,9.988,9.728,17.307,19.54,17.307c0.803,0,1.614-0.049,2.432-0.15   c10.805-1.329,18.487-11.166,17.158-21.972l-12.31-100.069c-0.161-1.311-0.454-2.603-0.874-3.855l-20.733-63.283l-32.129-18.418   c-13.165-7.547-17.175-21.97-15.935-29.434l11.008-66.256l4.549,68.84c0.364,5.496,3.454,10.435,8.222,13.168l56.938,32.641   c7.318,4.196,16.625,2.163,21.526-4.702C464.04,252.13,461.496,241.128,453.143,236.339z M321.615,202.058l-7.916-18.206   l13.313-10.334L321.615,202.058z" fill="#FFFFFF"/>
	<circle id="XMLID_444_" cx="103.252" cy="44.467" r="36.697" fill="#FFFFFF"/>
	<path id="XMLID_536_" d="M278.835,36.076c-4.634-8.611-15.372-11.836-23.983-7.201L131.583,95.214l-21.049,54.991l5.175-24.378   c0.363-1.712,0.099-3.497-0.744-5.031l-7.107-12.926l6.318-11.491c0.438-0.797,0.423-1.766-0.04-2.549   c-0.463-0.783-1.305-1.263-2.214-1.263H94.581c-0.909,0-1.751,0.48-2.214,1.263c-0.463,0.783-0.478,1.752-0.04,2.549l6.318,11.491   l-7.133,12.973c-0.827,1.505-1.097,3.253-0.763,4.937l4.525,24.425L73.552,92.862H54.543c-6.087,0-11.747,3.126-14.988,8.278   L2.719,159.702c-4.049,6.437-3.536,14.742,1.276,20.63l38.215,46.774c3.498,4.281,8.584,6.501,13.712,6.504l0.008,198.775   c0,11.735,9.513,21.248,21.248,21.248s21.248-9.513,21.248-21.248V267.136c0-2.533,2.054-4.587,4.587-4.587   s4.587,2.054,4.587,4.587v165.249c0,11.735,9.513,21.248,21.248,21.248s21.248-9.513,21.248-21.248l-0.385-306.711l121.923-65.615   C280.245,55.424,283.469,44.687,278.835,36.076z M55.922,187.917l-16.45-20.134l16.45-26.152V187.917z" fill="#FFFFFF"/>
</g>
<g>
</g>
<g>
</g>
<g>
</g>
<g>
</g>
<g>
</g>
<g>
</g>
<g>
</g>
<g>
</g>
<g>
</g>
<g>
</g>
<g>
</g>
<g>
</g>
<g>
</g>
<g>
</g>
<g>
</g>
</svg>
